# xmcd
# 
# Track frame offsets:
#     150
#     6882
#     13552
#     23493
#     33454
#     41377
#     49407
#     59848
#     70326
#     77102
#     83921
#     95242
#     106585
#     115179
#     123900
#     132431
#     141108
#     150916
#     160714
#     172874
#     185185
#     191659
#     198196
#     205226
#     212205
#     222026
#     231842
#     242450
#     253008
#     261522
#     269971
#     277924
# 
# Disc length: 3811
# 
# Revision: 0
# Processed by: cddbd v1.5.2PL0 Copyright (c) Steve Scherf et al.
# Submitted via: fre:ac v1.0.17
# 
DISCID=cc0ee120
DTITLE=Christopher Norton - Country Preludes
DYEAR=2007
DGENRE=Country
TTITLE0=Country Rag Backing
TTITLE1=Country Rag Performance
TTITLE2=Border Tune Backing
TTITLE3=Border Tune Performance
TTITLE4=Southern Fried Backing
TTITLE5=Southern Fried Performance
TTITLE6=Homecoming Backing
TTITLE7=Homecoming Performance
TTITLE8=Bar-room Strut Backing
TTITLE9=Bar-room Strut Performance
TTITLE10=Roving River Backing
TTITLE11=Roving River Performance
TTITLE12=Mustang Backing
TTITLE13=Mustang Performance
TTITLE14=Right Time, Wrong Place Backing
TTITLE15=Right Time, Wrong Place Performance
TTITLE16=Forest's Edge Backing
TTITLE17=Forest's Edge Performance
TTITLE18=Country Girl Backing
TTITLE19=Country Girl Performance
TTITLE20=Cowboy Blues Backing
TTITLE21=Cowboy Blues Performance
TTITLE22=Hot Rod Backing
TTITLE23=Hot Rod Performance
TTITLE24=Sitting On The Porch Backing
TTITLE25=Sitting On The Porch Performance
TTITLE26=She Done Me Wrong Backing
TTITLE27=She Done Me Wrong Performance
TTITLE28=Riding High Backing
TTITLE29=Riding High Performance
TTITLE30=Barnstorming Backing
TTITLE31=Barnstorming Performance
EXTD=
EXTT0=
EXTT1=
EXTT2=
EXTT3=
EXTT4=
EXTT5=
EXTT6=
EXTT7=
EXTT8=
EXTT9=
EXTT10=
EXTT11=
EXTT12=
EXTT13=
EXTT14=
EXTT15=
EXTT16=
EXTT17=
EXTT18=
EXTT19=
EXTT20=
EXTT21=
EXTT22=
EXTT23=
EXTT24=
EXTT25=
EXTT26=
EXTT27=
EXTT28=
EXTT29=
EXTT30=
EXTT31=
PLAYORDER=
